<?xml version="1.0" encoding="UTF-8" standalone="no"?>
<!-- Created with Inkscape (http://www.inkscape.org/) -->

<svg
   width="210mm"
   height="297mm"
   viewBox="0 0 210 297"
   version="1.1"
   id="svg1"
   xml:space="preserve"
   inkscape:version="1.4.2 (f4327f4, 2025-05-13)"
   sodipodi:docname="Game of Life - Front Panel.svg"
   xmlns:inkscape="http://www.inkscape.org/namespaces/inkscape"
   xmlns:sodipodi="http://sodipodi.sourceforge.net/DTD/sodipodi-0.dtd"
   xmlns="http://www.w3.org/2000/svg"
   xmlns:svg="http://www.w3.org/2000/svg"><sodipodi:namedview
     id="namedview1"
     pagecolor="#ffffff"
     bordercolor="#000000"
     borderopacity="0.25"
     inkscape:showpageshadow="2"
     inkscape:pageopacity="0.0"
     inkscape:pagecheckerboard="0"
     inkscape:deskcolor="#d1d1d1"
     inkscape:document-units="mm"
     showgrid="true"
     inkscape:zoom="1.3498657"
     inkscape:cx="301.88189"
     inkscape:cy="478.93654"
     inkscape:window-width="1920"
     inkscape:window-height="1009"
     inkscape:window-x="-8"
     inkscape:window-y="-8"
     inkscape:window-maximized="1"
     inkscape:current-layer="layer1"><inkscape:grid
       id="grid1"
       units="mm"
       originx="0"
       originy="0"
       spacingx="0.5"
       spacingy="0.5"
       empcolor="#0099e5"
       empopacity="0.30196078"
       color="#0099e5"
       opacity="0.14901961"
       empspacing="5"
       enabled="true"
       visible="true" /></sodipodi:namedview><defs
     id="defs1"><marker
       id="DistanceX"
       orient="auto"
       refX="0.0"
       refY="0.0"
       style="overflow:visible"><path
         d="M 3,-3 L -3,3 M 0,-5 L  0,5"
         style="stroke:#000000; stroke-width:0.5"
         id="path1" /></marker><pattern
       id="Hatch"
       patternUnits="userSpaceOnUse"
       width="8"
       height="8"
       x="0"
       y="0"><path
         d="M8 4 l-4,4"
         stroke="#000000"
         stroke-width="0.25"
         linecap="square"
         id="path2" /><path
         d="M6 2 l-4,4"
         stroke="#000000"
         stroke-width="0.25"
         linecap="square"
         id="path3" /><path
         d="M4 0 l-4,4"
         stroke="#000000"
         stroke-width="0.25"
         linecap="square"
         id="path4" /></pattern><symbol
       id="*MODEL_SPACE" /><symbol
       id="*PAPER_SPACE" /><clipPath
       clipPathUnits="userSpaceOnUse"
       id="clipPath2"><rect
         style="fill:#fbfbfb;fill-opacity:0.336788;stroke:#000000;stroke-width:0.22602;stroke-linecap:round;stroke-linejoin:round;stroke-miterlimit:4.6;stroke-dasharray:none;stroke-opacity:1"
         id="rect3"
         width="26.629276"
         height="32.685749"
         x="18.83124"
         y="32.807713"
         rx="1.3592496"
         ry="1.8879193" /></clipPath><clipPath
       clipPathUnits="userSpaceOnUse"
       id="clipPath20"><rect
         style="fill:#fbfbfb;fill-opacity:0.336788;stroke:#000000;stroke-width:0.3;stroke-linecap:round;stroke-linejoin:round;stroke-miterlimit:4.6;stroke-dasharray:none;stroke-opacity:1"
         id="rect21"
         width="16.189411"
         height="13.97647"
         x="52.178822"
         y="55.439999"
         rx="2.1402211"
         ry="2.1123748" /></clipPath><marker
       id="DistanceX-1"
       orient="auto"
       refX="0.0"
       refY="0.0"
       style="overflow:visible"><path
         d="M 3,-3 L -3,3 M 0,-5 L  0,5"
         style="stroke:#000000; stroke-width:0.5"
         id="path1-7" /></marker><pattern
       id="Hatch-1"
       patternUnits="userSpaceOnUse"
       width="8"
       height="8"
       x="0"
       y="0"><path
         d="M8 4 l-4,4"
         stroke="#000000"
         stroke-width="0.25"
         linecap="square"
         id="path2-1" /><path
         d="M6 2 l-4,4"
         stroke="#000000"
         stroke-width="0.25"
         linecap="square"
         id="path3-5" /><path
         d="M4 0 l-4,4"
         stroke="#000000"
         stroke-width="0.25"
         linecap="square"
         id="path4-2" /></pattern><symbol
       id="*MODEL_SPACE-7" /><symbol
       id="*PAPER_SPACE-6" /><marker
       id="DistanceX-0"
       orient="auto"
       refX="0.0"
       refY="0.0"
       style="overflow:visible"><path
         d="M 3,-3 L -3,3 M 0,-5 L  0,5"
         style="stroke:#000000; stroke-width:0.5"
         id="path1-9" /></marker><pattern
       id="Hatch-4"
       patternUnits="userSpaceOnUse"
       width="8"
       height="8"
       x="0"
       y="0"><path
         d="M8 4 l-4,4"
         stroke="#000000"
         stroke-width="0.25"
         linecap="square"
         id="path2-8" /><path
         d="M6 2 l-4,4"
         stroke="#000000"
         stroke-width="0.25"
         linecap="square"
         id="path3-8" /><path
         d="M4 0 l-4,4"
         stroke="#000000"
         stroke-width="0.25"
         linecap="square"
         id="path4-24" /></pattern><symbol
       id="*MODEL_SPACE-5" /><symbol
       id="*PAPER_SPACE-5" /><marker
       id="DistanceX-09"
       orient="auto"
       refX="0.0"
       refY="0.0"
       style="overflow:visible"><path
         d="M 3,-3 L -3,3 M 0,-5 L  0,5"
         style="stroke:#000000; stroke-width:0.5"
         id="path1-4" /></marker><pattern
       id="Hatch-8"
       patternUnits="userSpaceOnUse"
       width="8"
       height="8"
       x="0"
       y="0"><path
         d="M8 4 l-4,4"
         stroke="#000000"
         stroke-width="0.25"
         linecap="square"
         id="path2-82" /><path
         d="M6 2 l-4,4"
         stroke="#000000"
         stroke-width="0.25"
         linecap="square"
         id="path3-4" /><path
         d="M4 0 l-4,4"
         stroke="#000000"
         stroke-width="0.25"
         linecap="square"
         id="path4-5" /></pattern><symbol
       id="*MODEL_SPACE-51" /><symbol
       id="*PAPER_SPACE-7" /><clipPath
       clipPathUnits="userSpaceOnUse"
       id="clipPath3"><rect
         style="fill:#000000;fill-opacity:0.176229;stroke:#cd8282;stroke-width:0.370605;stroke-linecap:round;stroke-linejoin:round;stroke-miterlimit:4.6"
         id="rect4"
         width="44.754093"
         height="34.970573"
         x="-249.26175"
         y="47.971184"
         rx="0.73195416"
         ry="0.76744908" /></clipPath><clipPath
       clipPathUnits="userSpaceOnUse"
       id="clipPath6"><rect
         style="fill:#000000;fill-opacity:0.176229;stroke:#cd8282;stroke-width:0.4;stroke-linecap:round;stroke-linejoin:round;stroke-miterlimit:4.6"
         id="rect6"
         width="42.861176"
         height="37.736469"
         x="-155.13881"
         y="-7.4541225"
         rx="0.85338569"
         ry="0.76680398" /></clipPath></defs><g
     inkscape:groupmode="layer"
     id="layer2"
     inkscape:label="Layer 2"><ellipse
       style="fill:#000000;fill-opacity:1;stroke:#000000;stroke-width:0.399;stroke-linecap:round;stroke-linejoin:round;stroke-miterlimit:4.6;stroke-dasharray:none;stroke-opacity:1"
       id="path19"
       cx="68.839096"
       cy="145.98177"
       rx="3.2736964"
       ry="3.3148751"
       inkscape:export-filename="Front Panel - Inkscape.png"
       inkscape:export-xdpi="1200"
       inkscape:export-ydpi="1200" /><ellipse
       style="fill:#000000;fill-opacity:1;stroke:#000000;stroke-width:0.399;stroke-linecap:round;stroke-linejoin:round;stroke-miterlimit:4.6;stroke-dasharray:none;stroke-opacity:1"
       id="path19-2"
       cx="61.244495"
       cy="138.38716"
       rx="3.2736964"
       ry="3.3148751" /><ellipse
       style="fill:#000000;fill-opacity:1;stroke:#000000;stroke-width:0.399;stroke-linecap:round;stroke-linejoin:round;stroke-miterlimit:4.6;stroke-dasharray:none;stroke-opacity:1"
       id="path19-6"
       cx="53.649895"
       cy="145.98177"
       rx="3.2736964"
       ry="3.3148751" /><ellipse
       style="fill:#000000;fill-opacity:1;stroke:#000000;stroke-width:0.399;stroke-linecap:round;stroke-linejoin:round;stroke-miterlimit:4.6;stroke-dasharray:none;stroke-opacity:1"
       id="path19-1"
       cx="61.244495"
       cy="153.57635"
       rx="3.2736964"
       ry="3.3148751" /><ellipse
       style="fill:#000000;fill-opacity:1;stroke:#000000;stroke-width:0.399;stroke-linecap:round;stroke-linejoin:round;stroke-miterlimit:4.6;stroke-dasharray:none;stroke-opacity:1"
       id="path19-1-9"
       cx="156.21509"
       cy="145.98177"
       rx="3.2736964"
       ry="3.3148751" /><ellipse
       style="fill:#000000;fill-opacity:1;stroke:#000000;stroke-width:0.399;stroke-linecap:round;stroke-linejoin:round;stroke-miterlimit:4.6;stroke-dasharray:none;stroke-opacity:1"
       id="path19-1-2"
       cx="141.02589"
       cy="145.98177"
       rx="3.2736964"
       ry="3.3148751" /></g><g
     inkscape:label="Layer 1"
     inkscape:groupmode="layer"
     id="layer1"><rect
       style="fill:#fefefe;fill-opacity:0;stroke:#000000;stroke-width:0.331279;stroke-linecap:round;stroke-linejoin:round;stroke-miterlimit:4.6;stroke-dasharray:none;stroke-opacity:1"
       id="rect1"
       width="63.396179"
       height="39.62566"
       x="73.221703"
       y="109.30333"
       rx="1.9114136"
       ry="1.7112751" /><text
       xml:space="preserve"
       style="font-size:5.64444px;font-family:'Space Madness';-inkscape-font-specification:'Space Madness';text-align:center;writing-mode:lr-tb;direction:ltr;text-anchor:middle;white-space:pre;inline-size:130.061;display:inline;fill:#000000;fill-opacity:1;stroke:#a4cb2f;stroke-width:0;stroke-linecap:round;stroke-linejoin:round;stroke-miterlimit:4.6;stroke-dasharray:none;stroke-opacity:1"
       x="106.22118"
       y="134.17412"
       id="text19"
       transform="matrix(1.2899457,0,0,1.4167561,-32.155009,-32.610057)"><tspan
         x="106.22118"
         y="134.17412"
         id="tspan4"><tspan
           style="font-family:'Barcade Bold';-inkscape-font-specification:'Barcade Bold, '"
           id="tspan2">(GAME OF LIFE)</tspan></tspan></text><path
       style="fill:#000000"
       d="m 55.355192,66.291652 v -1.79014 h 1.79014 1.79014 v 1.79014 1.79014 h -1.79014 -1.79014 z m 3.874941,6.5e-5 0.02225,-1.790205 h 1.787348 1.787349 v 1.79014 1.79014 l -1.809598,6.5e-5 -1.809598,6.6e-5 z m 3.830444,-6.5e-5 v -1.79014 h 1.829056 1.829055 v 1.79014 1.79014 h -1.829055 -1.829056 z m 11.441328,0 v -1.79014 h 1.829056 1.829056 v 1.79014 1.79014 h -1.829056 -1.829056 z m 15.332937,0 v -1.79014 h 1.82906 1.82905 v 1.79014 1.79014 h -1.82905 -1.82906 z m 3.89161,0 v -1.79014 h 1.8096 1.8096 v 1.79014 1.79014 h -1.8096 -1.8096 z m 7.549718,0 v -1.79014 h 1.8096 1.8096 v 1.79014 1.79014 h -1.8096 -1.8096 z m 3.89161,0 v -1.79014 h 1.79014 1.79014 v 1.79014 1.79014 h -1.79014 -1.79014 z M 63.060577,62.400043 v -1.79014 h 1.829056 1.829055 v 1.79014 1.79014 h -1.829055 -1.829056 z m 11.441328,0 v -1.79014 h 1.829056 1.829056 v 1.79014 1.79014 h -1.829056 -1.829056 z m 3.891609,0 v -1.79014 h 1.829056 1.829056 v 1.79014 1.79014 H 80.22257 78.393514 Z m 7.54972,0 v -1.79014 h 1.829058 1.82905 v 1.79014 1.79014 h -1.82905 -1.829058 z m 7.783218,0 v -1.79014 l 1.8096,-5.2e-5 1.8096,-5.2e-5 v 1.790067 1.790068 l -1.8096,1.24e-4 -1.8096,1.25e-4 z m 11.441328,0 v -1.79014 h 1.79014 1.79014 v 1.79014 1.79014 h -1.79014 -1.79014 z m 3.89161,0 v -1.79014 h 1.79014 1.79014 v 1.79014 1.79014 h -1.79014 -1.79014 z M 61.017482,60.318107 59.2468,60.295657 V 58.506978 56.7183 h 1.79014 1.79014 v 1.829056 c 0,1.00598 -0.0088,1.820991 -0.01946,1.811134 -0.0107,-0.0099 -0.816265,-0.02803 -1.79014,-0.04038 z m 9.592815,-1.809672 v -1.79014 h 1.829056 1.829056 v 1.79014 1.79014 h -1.829056 -1.829056 z m 7.783217,0 v -1.79014 h 1.829056 1.829056 v 1.79014 1.79014 H 80.22257 78.393514 Z m 15.332938,0 v -1.79014 l 1.8096,-1.7e-5 1.8096,-1.6e-5 v 1.790133 1.790134 l -1.8096,2.3e-5 -1.8096,2.3e-5 z m 7.549718,0 v -1.79014 l 1.8096,-2.6e-5 1.8096,-2.6e-5 v 1.790119 1.79012 l -1.8096,4.6e-5 -1.8096,4.7e-5 z"
       id="path20"
       clip-path="url(#clipPath20)"
       transform="rotate(-0.31269828,10095.002,-16082.889)" /><text
       xml:space="preserve"
       style="font-style:normal;font-variant:normal;font-weight:normal;font-stretch:normal;font-size:4.23333px;font-family:'Barcade Bold';-inkscape-font-specification:'Barcade Bold, ';text-align:center;writing-mode:lr-tb;direction:ltr;text-anchor:middle;fill:#000000;fill-opacity:1;stroke:#000000;stroke-width:0;stroke-linecap:round;stroke-linejoin:round;stroke-miterlimit:4.6;stroke-dasharray:none;stroke-opacity:1"
       x="141.02589"
       y="139.72217"
       id="text21"><tspan
         sodipodi:role="line"
         id="tspan21"
         style="font-style:normal;font-variant:normal;font-weight:normal;font-stretch:normal;font-size:4.23333px;font-family:'Space Madness';-inkscape-font-specification:'Space Madness';fill:#000000;fill-opacity:1;stroke-width:0;stroke-dasharray:none"
         x="141.02589"
         y="139.72217">A</tspan></text><text
       xml:space="preserve"
       style="font-style:normal;font-variant:normal;font-weight:normal;font-stretch:normal;font-size:4.23333px;font-family:'Barcade Bold';-inkscape-font-specification:'Barcade Bold, ';text-align:center;writing-mode:lr-tb;direction:ltr;text-anchor:middle;fill:#000000;fill-opacity:1;stroke:#000000;stroke-width:0;stroke-linecap:round;stroke-linejoin:round;stroke-miterlimit:4.6;stroke-dasharray:none;stroke-opacity:1"
       x="156.21509"
       y="139.72217"
       id="text21-5"><tspan
         sodipodi:role="line"
         id="tspan21-5"
         style="font-style:normal;font-variant:normal;font-weight:normal;font-stretch:normal;font-size:4.23333px;font-family:'Space Madness';-inkscape-font-specification:'Space Madness';fill:#000000;fill-opacity:1;stroke-width:0;stroke-dasharray:none"
         x="156.21509"
         y="139.72217">B</tspan></text><g
       inkscape:label="0"
       id="g18"
       transform="matrix(0.26458333,0,0,0.26458333,47.655496,-126.83744)"><path
         d="M 430.56076,1078.9357 V 896.57348 a 9.6,9.6 0 0 0 -9.6,-9.6 H 12 a 9.6,9.6 0 0 0 -9.6,9.6 v 182.36222 a 9.6,9.6 0 0 0 9.6,9.6 h 408.96076 a 9.6,9.6 0 0 0 9.6,-9.6 z"
         style="fill:none;stroke:#000000"
         id="path5-1" /><path
         d="m 111.456,913.62369 a 4.8,4.8 0 0 0 -9.6,0 4.8,4.8 0 0 0 9.6,0 z"
         style="fill:none;stroke:#000000"
         id="path6-1" /><path
         d="m 331.056,913.62369 a 4.8,4.8 0 0 0 -9.6,0 4.8,4.8 0 0 0 9.6,0 z"
         style="fill:none;stroke:#000000"
         id="path7-5" /><path
         d="m 330.96,1021.3357 a 4.8,4.8 0 0 0 -9.6,0 4.8,4.8 0 0 0 9.6,0 z"
         style="fill:none;stroke:#000000"
         id="path8-2" /><path
         d="m 111.456,1021.4317 a 4.8,4.8 0 0 0 -9.6,0 4.8,4.8 0 0 0 9.6,0 z"
         style="fill:none;stroke:#000000"
         id="path9-7" /><path
         d="m 16.8,1079.1277 a 4.8,4.8 0 0 0 -9.6,0 4.8,4.8 0 0 0 9.6,0 z"
         style="fill:none;stroke:#000000"
         id="path10-6" /><path
         d="m 425.76,1079.1277 a 4.8,4.8 0 0 0 -9.6,0 4.8,4.8 0 0 0 9.6,0 z"
         style="fill:none;stroke:#000000"
         id="path11-1" /><path
         d="M 117.744,1036.6957 V 898.07168 H 315.12 v 138.62402 z"
         style="fill:none;stroke:#000000"
         id="path12-4" /><path
         d="m 57.785197,1002.4237 a 6.425197,6.425197 0 0 0 -12.850394,0 6.425197,6.425197 0 0 0 12.850394,0 z"
         style="fill:none;stroke:#000000"
         id="path13-2" /><path
         d="m 29.081197,1031.1277 a 6.425197,6.425197 0 0 0 -12.850394,0 6.425197,6.425197 0 0 0 12.850394,0 z"
         style="fill:none;stroke:#000000"
         id="path14-3" /><path
         d="m 57.785197,1059.8317 a 6.425197,6.425197 0 0 0 -12.850394,0 6.425197,6.425197 0 0 0 12.850394,0 z"
         style="fill:none;stroke:#000000"
         id="path15-2" /><path
         d="m 86.489197,1031.1277 a 6.425197,6.425197 0 0 0 -12.850394,0 6.425197,6.425197 0 0 0 12.850394,0 z"
         style="fill:none;stroke:#000000"
         id="path16-2" /><path
         d="m 359.3212,1031.1277 a 6.4252,6.4252 0 0 0 -12.8504,0 6.4252,6.4252 0 0 0 12.8504,0 z"
         style="fill:none;stroke:#000000"
         id="path17-1" /><path
         d="m 416.7292,1031.1277 a 6.4252,6.4252 0 0 0 -12.8504,0 6.4252,6.4252 0 0 0 12.8504,0 z"
         style="fill:none;stroke:#000000"
         id="path18-6" /></g><g
       id="g7"
       transform="translate(0.93103399,1.3655389)"><rect
         style="fill:#000000;fill-opacity:1;stroke:#000000;stroke-width:0;stroke-linecap:round;stroke-linejoin:round;stroke-miterlimit:4.6;stroke-dasharray:none;stroke-opacity:1"
         id="rect7"
         width="3.6041772"
         height="3.5814111"
         x="57.90406"
         y="109.78123"
         rx="0"
         ry="0" /><rect
         style="fill:#000000;fill-opacity:1;stroke:#000000;stroke-width:0;stroke-linecap:round;stroke-linejoin:round;stroke-miterlimit:4.6;stroke-dasharray:none;stroke-opacity:1"
         id="rect7-2"
         width="3.6041772"
         height="3.5814111"
         x="57.90406"
         y="121.22416"
         rx="0"
         ry="0" /><rect
         style="fill:#000000;fill-opacity:1;stroke:#000000;stroke-width:0;stroke-linecap:round;stroke-linejoin:round;stroke-miterlimit:4.6;stroke-dasharray:none;stroke-opacity:1"
         id="rect7-3"
         width="3.6041772"
         height="3.5814111"
         x="54.321579"
         y="113.60751"
         rx="0"
         ry="0" /><rect
         style="fill:#000000;fill-opacity:1;stroke:#000000;stroke-width:0;stroke-linecap:round;stroke-linejoin:round;stroke-miterlimit:4.6;stroke-dasharray:none;stroke-opacity:1"
         id="rect7-3-3"
         width="3.6041772"
         height="3.5814111"
         x="61.508892"
         y="113.60751"
         rx="0"
         ry="0" /><rect
         style="fill:#000000;fill-opacity:1;stroke:#000000;stroke-width:0;stroke-linecap:round;stroke-linejoin:round;stroke-miterlimit:4.6;stroke-dasharray:none;stroke-opacity:1"
         id="rect7-3-3-7"
         width="3.6041772"
         height="3.5814111"
         x="61.508892"
         y="117.4978"
         rx="0"
         ry="0" /><rect
         style="fill:#000000;fill-opacity:1;stroke:#000000;stroke-width:0;stroke-linecap:round;stroke-linejoin:round;stroke-miterlimit:4.6;stroke-dasharray:none;stroke-opacity:1"
         id="rect7-3-3-7-9"
         width="3.6041772"
         height="3.5814111"
         x="54.321579"
         y="117.4978"
         rx="0"
         ry="0" /></g></g></svg>
